<svg id="visual" viewBox="0 0 900 600" width="900" height="600" xmlns="http://www.w3.org/2000/svg" xmlns:xlink="http://www.w3.org/1999/xlink" version="1.1"><rect x="0" y="0" width="900" height="600" fill="#002233"></rect><path d="M0 64L6.3 59.5C12.7 55 25.3 46 37.8 47.7C50.3 49.3 62.7 61.7 75.2 62.2C87.7 62.7 100.3 51.3 112.8 53.2C125.3 55 137.7 70 150.2 76.8C162.7 83.7 175.3 82.3 187.8 79.2C200.3 76 212.7 71 225.2 66.3C237.7 61.7 250.3 57.3 262.8 59.7C275.3 62 287.7 71 300.2 67.8C312.7 64.7 325.3 49.3 337.8 49.5C350.3 49.7 362.7 65.3 375.2 69C387.7 72.7 400.3 64.3 412.8 63.7C425.3 63 437.7 70 450 75C462.3 80 474.7 83 487.2 75.8C499.7 68.7 512.3 51.3 525 42.2C537.7 33 550.3 32 562.8 35.5C575.3 39 587.7 47 600.2 46.7C612.7 46.3 625.3 37.7 637.8 42.7C650.3 47.7 662.7 66.3 675.2 75C687.7 83.7 700.3 82.3 712.8 80.8C725.3 79.3 737.7 77.7 750.2 69.5C762.7 61.3 775.3 46.7 787.8 47C800.3 47.3 812.7 62.7 825.2 63.2C837.7 63.7 850.3 49.3 862.8 48.7C875.3 48 887.7 61 893.8 67.5L900 74L900 0L893.8 0C887.7 0 875.3 0 862.8 0C850.3 0 837.7 0 825.2 0C812.7 0 800.3 0 787.8 0C775.3 0 762.7 0 750.2 0C737.7 0 725.3 0 712.8 0C700.3 0 687.7 0 675.2 0C662.7 0 650.3 0 637.8 0C625.3 0 612.7 0 600.2 0C587.7 0 575.3 0 562.8 0C550.3 0 537.7 0 525 0C512.3 0 499.7 0 487.2 0C474.7 0 462.3 0 450 0C437.7 0 425.3 0 412.8 0C400.3 0 387.7 0 375.2 0C362.7 0 350.3 0 337.8 0C325.3 0 312.7 0 300.2 0C287.7 0 275.3 0 262.8 0C250.3 0 237.7 0 225.2 0C212.7 0 200.3 0 187.8 0C175.3 0 162.7 0 150.2 0C137.7 0 125.3 0 112.8 0C100.3 0 87.7 0 75.2 0C62.7 0 50.3 0 37.8 0C25.3 0 12.7 0 6.3 0L0 0Z" fill="#3770c4" stroke-linecap="round" stroke-linejoin="miter"></path></svg>