<svg id="visual" viewBox="0 0 900 600" width="900" height="600" xmlns="http://www.w3.org/2000/svg" xmlns:xlink="http://www.w3.org/1999/xlink" version="1.1"><rect x="0" y="0" width="900" height="600" fill="#001122"></rect><defs><linearGradient id="grad1_0" x1="33.3%" y1="100%" x2="100%" y2="0%"><stop offset="20%" stop-color="#0066ff" stop-opacity="1"></stop><stop offset="80%" stop-color="#0066ff" stop-opacity="1"></stop></linearGradient></defs><defs><linearGradient id="grad1_1" x1="33.3%" y1="100%" x2="100%" y2="0%"><stop offset="20%" stop-color="#0066ff" stop-opacity="1"></stop><stop offset="80%" stop-color="#0053c5" stop-opacity="1"></stop></linearGradient></defs><defs><linearGradient id="grad1_2" x1="33.3%" y1="100%" x2="100%" y2="0%"><stop offset="20%" stop-color="#003e8c" stop-opacity="1"></stop><stop offset="80%" stop-color="#0053c5" stop-opacity="1"></stop></linearGradient></defs><defs><linearGradient id="grad1_3" x1="33.3%" y1="100%" x2="100%" y2="0%"><stop offset="20%" stop-color="#003e8c" stop-opacity="1"></stop><stop offset="80%" stop-color="#002854" stop-opacity="1"></stop></linearGradient></defs><defs><linearGradient id="grad1_4" x1="33.3%" y1="100%" x2="100%" y2="0%"><stop offset="20%" stop-color="#001122" stop-opacity="1"></stop><stop offset="80%" stop-color="#002854" stop-opacity="1"></stop></linearGradient></defs><defs><linearGradient id="grad2_0" x1="0%" y1="100%" x2="66.7%" y2="0%"><stop offset="20%" stop-color="#0066ff" stop-opacity="1"></stop><stop offset="80%" stop-color="#0066ff" stop-opacity="1"></stop></linearGradient></defs><defs><linearGradient id="grad2_1" x1="0%" y1="100%" x2="66.7%" y2="0%"><stop offset="20%" stop-color="#0053c5" stop-opacity="1"></stop><stop offset="80%" stop-color="#0066ff" stop-opacity="1"></stop></linearGradient></defs><defs><linearGradient id="grad2_2" x1="0%" y1="100%" x2="66.7%" y2="0%"><stop offset="20%" stop-color="#0053c5" stop-opacity="1"></stop><stop offset="80%" stop-color="#003e8c" stop-opacity="1"></stop></linearGradient></defs><defs><linearGradient id="grad2_3" x1="0%" y1="100%" x2="66.7%" y2="0%"><stop offset="20%" stop-color="#002854" stop-opacity="1"></stop><stop offset="80%" stop-color="#003e8c" stop-opacity="1"></stop></linearGradient></defs><defs><linearGradient id="grad2_4" x1="0%" y1="100%" x2="66.7%" y2="0%"><stop offset="20%" stop-color="#002854" stop-opacity="1"></stop><stop offset="80%" stop-color="#001122" stop-opacity="1"></stop></linearGradient></defs><g transform="translate(900, 600)"><path d="M-486.7 0C-458.4 -60.1 -430.1 -120.2 -394.5 -163.4C-358.9 -206.6 -316 -233 -284.3 -284.3C-252.5 -335.5 -231.8 -411.8 -186.3 -449.7C-140.7 -487.6 -70.4 -487.2 0 -486.7L0 0Z" fill="#001d3a"></path><path d="M-389.4 0C-366.7 -48.1 -344.1 -96.2 -315.6 -130.7C-287.1 -165.3 -252.8 -186.4 -227.4 -227.4C-202 -268.4 -185.4 -329.4 -149 -359.8C-112.6 -390.1 -56.3 -389.7 0 -389.4L0 0Z" fill="#003370"></path><path d="M-292 0C-275.1 -36.1 -258.1 -72.1 -236.7 -98C-215.3 -124 -189.6 -139.8 -170.6 -170.6C-151.5 -201.3 -139.1 -247.1 -111.8 -269.8C-84.4 -292.6 -42.2 -292.3 0 -292L0 0Z" fill="#0049a8"></path><path d="M-194.7 0C-183.4 -24 -172 -48.1 -157.8 -65.4C-143.6 -82.6 -126.4 -93.2 -113.7 -113.7C-101 -134.2 -92.7 -164.7 -74.5 -179.9C-56.3 -195 -28.1 -194.9 0 -194.7L0 0Z" fill="#005de2"></path><path d="M-97.3 0C-91.7 -12 -86 -24 -78.9 -32.7C-71.8 -41.3 -63.2 -46.6 -56.9 -56.9C-50.5 -67.1 -46.4 -82.4 -37.3 -89.9C-28.1 -97.5 -14.1 -97.4 0 -97.3L0 0Z" fill="#0066ff"></path></g><g transform="translate(0, 0)"><path d="M486.7 0C485.5 71 484.3 141.9 446.2 184.8C408.2 227.7 333.2 242.6 288.5 288.5C243.8 334.4 229.3 411.5 186.3 449.7C143.2 487.9 71.6 487.3 0 486.7L0 0Z" fill="#001d3a"></path><path d="M389.4 0C388.4 56.8 387.5 113.5 357 147.9C326.5 182.2 266.6 194.1 230.8 230.8C195 267.5 183.5 329.2 149 359.8C114.6 390.3 57.3 389.9 0 389.4L0 0Z" fill="#003370"></path><path d="M292 0C291.3 42.6 290.6 85.2 267.7 110.9C244.9 136.6 199.9 145.5 173.1 173.1C146.3 200.7 137.6 246.9 111.8 269.8C85.9 292.8 43 292.4 0 292L0 0Z" fill="#0049a8"></path><path d="M194.7 0C194.2 28.4 193.7 56.8 178.5 73.9C163.3 91.1 133.3 97 115.4 115.4C97.5 133.8 91.7 164.6 74.5 179.9C57.3 195.2 28.6 194.9 0 194.7L0 0Z" fill="#005de2"></path><path d="M97.3 0C97.1 14.2 96.9 28.4 89.2 37C81.6 45.5 66.6 48.5 57.7 57.7C48.8 66.9 45.9 82.3 37.3 89.9C28.6 97.6 14.3 97.5 0 97.3L0 0Z" fill="#0066ff"></path></g></svg>